<?xml version="1.0"?>
<!-- Generator: libbsvg 0.5.0 - a native SVG-Library for BeOS -->
<!DOCTYPE svg PUBLIC "-//W3C//DTD SVG 1.1//EN" "http://www.w3.org/Graphics/SVG/1.1/DTD/svg11.dtd">
<svg xmlns="http://www.w3.org/2000/svg" width="32.00" height="32.00" viewBox="0.00 32.00
	32.00 32.00">
	<g>
		<g id="Layer_1">
			<path fill="none" d=" M32.00 32.00 H0.00 V0.00 H32.00 V32.00 Z" />
			<radialGradient id="XMLID_1_" cx="66%" cy="33%" fx="66%" fy="33%" r="100%">
				<stop stop-color="#ffffff" offset="0.00" />
				<stop stop-color="#cccccc" offset="1.00" />
			</radialGradient>
			<path fill="url(#XMLID_1_)"
				opacity="0.75" d=" M25.00 10.00 C25.01 5.03 19.63 1.00 13.01 1.00 C6.37
				1.00 1.00 5.03 1.01 10.00 C1.01 14.32 5.07 17.93 10.49 18.80 L10.49 18.80
				C10.55 20.06 10.11 21.89 8.01 24.00 C8.01 24.00 14.57 23.98 15.79 18.75
				L15.79 18.75 C21.07 17.80 25.00 14.25 25.01 10.00 Z" />
			<path d=" M0.50 10.00 C0.50 14.35 4.46 18.15 9.97 19.19 C9.91 20.64 9.12 22.17
				7.65 23.65 L6.79 24.50 L8.00 24.50 C8.07 24.50 14.50 24.30 15.79 18.75
				C14.97 22.29 11.01 23.14 9.16 23.40 C10.58 21.64 11.00 20.09 11.00 19.00
				C11.00 18.93 10.99 18.85 10.99 18.78 L10.97 18.37 L10.57 18.31 C5.31 17.47
				1.50 13.97 1.50 10.00 C1.50 5.31 6.66 1.50 13.01 1.50 C19.34 1.50 24.50
				5.31 24.50 10.00 C24.50 12.04 23.82 14.40 22.01 15.94 C24.05 14.21 25.50
				12.34 25.50 10.00 C25.50 4.76 19.89 0.50 13.01 0.50 C6.11 0.50 0.50 4.76
				0.50 10.00 Z" />
			<path opacity="0.25"
				d=" M23.00 10.00 C23.01 6.63 20.04 3.78 15.97 2.84 C16.78 3.35 17.57 3.97
				18.30 4.70 C20.97 7.36 22.18 10.79 21.75 13.62 C22.55 12.55 23.00 11.31
				23.01 10.00 Z" />
			<linearGradient id="XMLID_2_" x1="50%" y1="100%" x2="50%" y2="0%">
				<stop stop-color="#cc0000" offset="0.00" />
				<stop stop-color="#ff9900" offset="1.00" />
			</linearGradient>
			<path fill="url(#XMLID_2_)" d=" M25.29 28.29 C24.82 28.77 24.38 28.93 23.98
				28.77 C23.43 28.54 23.00 27.76 23.01 27.00 L23.00 24.00 H26.00 V22.00
				H23.00 V19.00 H21.00 V22.00 H20.00 V24.00 H21.00 V27.00 C21.01 28.59 21.91
				30.07 23.22 30.61 C24.38 31.09 25.65 30.76 26.71 29.71 L25.29 28.29 Z"
				/>
			<linearGradient id="XMLID_3_" x1="50%" y1="100%" x2="50%" y2="0%">
				<stop stop-color="#0033cc" offset="0.00" />
				<stop stop-color="#3366ff" offset="1.00" />
			</linearGradient>
			<path fill="url(#XMLID_3_)" d=" M14.00 25.50 L13.00 26.00 H16.00 V29.00 C15.05
				30.27 12.95 30.50 11.50 30.50 S8.74 29.72 7.79 28.45 C6.84 27.18 6.25
				25.43 6.25 23.50 S6.84 19.82 7.79 18.55 C8.74 17.28 10.05 16.50 11.50
				16.50 C12.89 16.50 14.83 16.97 15.87 19.65 C15.60 20.39 15.00 21.00 15.01
				21.00 L18.00 19.00 C16.01 16.00 13.57 16.00 11.50 16.00 S7.55 16.84 6.20
				18.19 C4.84 19.56 4.00 21.43 4.01 23.50 C4.01 25.57 4.84 27.44 6.20 28.81
				C7.55 30.16 9.43 31.00 11.50 31.00 C15.01 31.00 18.00 30.00 18.01 29.00
				L18.00 26.00 L18.50 25.50 H14.00 Z" />
		</g>
	</g>
</svg>